<svg width="110" height="20" viewBox="0 0 110 20" fill="none" xmlns="http://www.w3.org/2000/svg">
<path d="M4.81207 20C4.1445 20 3.51402 19.9183 2.92062 19.7548C2.34577 19.6094 1.83582 19.3733 1.39077 19.0463C0.964268 18.7012 0.621211 18.2743 0.3616 17.7657C0.120533 17.2389 0 16.6213 0 15.9128C0 14.9319 0.222523 14.1689 0.66757 13.624C1.11262 13.0609 1.69674 12.634 2.41994 12.3433C3.16169 12.0527 3.98688 11.8529 4.89551 11.7439C5.8227 11.6167 6.75915 11.4986 7.70487 11.3896C8.0572 11.3533 8.37244 11.3079 8.6506 11.2534C8.94729 11.1989 9.18836 11.1081 9.3738 10.9809C9.55923 10.8356 9.69831 10.6449 9.79103 10.4087C9.90229 10.1726 9.95792 9.86376 9.95792 9.48229C9.95792 8.901 9.85593 8.4287 9.65195 8.06539C9.46652 7.68392 9.19763 7.3842 8.8453 7.16621C8.51152 6.94823 8.11283 6.80291 7.64924 6.73024C7.20419 6.63942 6.72206 6.59401 6.20284 6.59401C5.09022 6.59401 4.18159 6.8574 3.47693 7.3842C2.77227 7.89282 2.4014 8.71935 2.36431 9.86376H0.611939C0.723201 8.21072 1.29805 7.01181 2.3365 6.26703C3.39348 5.52225 4.75644 5.14986 6.42536 5.14986C7.05585 5.14986 7.68633 5.21344 8.31681 5.3406C8.94729 5.44959 9.51288 5.66758 10.0136 5.99455C10.5142 6.32153 10.9222 6.78474 11.2374 7.3842C11.5527 7.96549 11.7103 8.72843 11.7103 9.67302V17.139C11.7103 17.8292 12.0533 18.1744 12.7395 18.1744C12.962 18.1744 13.1474 18.1381 13.2958 18.0654V19.5095C13.0918 19.5459 12.9064 19.5731 12.7395 19.5913C12.5911 19.6094 12.3964 19.6185 12.1553 19.6185C11.7103 19.6185 11.3487 19.564 11.0705 19.455C10.8109 19.3279 10.6069 19.1553 10.4586 18.9373C10.3102 18.7193 10.2083 18.465 10.1526 18.1744C10.1155 17.8656 10.097 17.5295 10.097 17.1662H10.0414C9.72613 17.6203 9.40161 18.0291 9.06783 18.3924C8.75259 18.7375 8.39099 19.0282 7.98303 19.2643C7.59361 19.5005 7.13929 19.6821 6.62007 19.8093C6.10085 19.9364 5.49818 20 4.81207 20ZM4.95115 18.5831C5.61872 18.5831 6.25847 18.4832 6.87041 18.2834C7.48235 18.0836 8.01084 17.7929 8.45589 17.4114C8.91948 17.03 9.28108 16.5668 9.54069 16.0218C9.81884 15.4768 9.95792 14.8592 9.95792 14.1689V11.9346H9.90229C9.79103 12.1344 9.57778 12.2797 9.26254 12.3706C8.94729 12.4614 8.66914 12.525 8.42807 12.5613C7.68633 12.6885 6.91677 12.8065 6.11939 12.9155C5.34056 13.0064 4.62663 13.1517 3.97761 13.3515C3.32858 13.5513 2.79081 13.842 2.36431 14.2234C1.95635 14.6049 1.75237 15.1317 1.75237 15.8038C1.75237 16.2398 1.83582 16.6303 2.00271 16.9755C2.18815 17.3025 2.42921 17.5931 2.72591 17.8474C3.02261 18.0836 3.35639 18.2652 3.72727 18.3924C4.11668 18.5195 4.52464 18.5831 4.95115 18.5831Z" fill="black"/>
<path d="M98.4288 12.5068C98.4288 13.3606 98.5308 14.1599 98.7348 14.9046C98.9573 15.6312 99.2725 16.267 99.6805 16.812C100.088 17.3388 100.598 17.7566 101.21 18.0654C101.822 18.3742 102.518 18.5286 103.296 18.5286C104.001 18.5286 104.65 18.4105 105.244 18.1744C105.837 17.9201 106.356 17.5568 106.801 17.0845C107.246 16.6122 107.589 16.04 107.83 15.3678C108.09 14.6776 108.22 13.8874 108.22 12.9973C108.257 12.1072 108.183 11.2807 107.997 10.5177C107.812 9.7366 107.515 9.0554 107.107 8.47411C106.699 7.89282 106.171 7.43869 105.522 7.11172C104.891 6.76658 104.149 6.59401 103.296 6.59401C102.536 6.59401 101.85 6.75749 101.238 7.08447C100.645 7.39328 100.135 7.82016 99.7083 8.36512C99.3003 8.89192 98.9851 9.51862 98.7626 10.2452C98.54 10.9537 98.4288 11.7075 98.4288 12.5068ZM98.4288 19.6185H96.7599V0H98.4288V7.76567C98.9666 6.89373 99.699 6.23978 100.626 5.80381C101.572 5.34968 102.555 5.12262 103.575 5.12262C104.669 5.12262 105.614 5.33152 106.412 5.74932C107.228 6.14896 107.895 6.69391 108.415 7.3842C108.952 8.05631 109.351 8.8465 109.611 9.75477C109.87 10.663 110 11.6076 110 12.5886C110 13.624 109.879 14.5958 109.638 15.5041C109.397 16.4124 109.008 17.2025 108.47 17.8747C107.951 18.5286 107.283 19.0463 106.467 19.4278C105.652 19.8093 104.659 20 103.491 20C103.028 20 102.555 19.9364 102.073 19.8093C101.59 19.6821 101.118 19.5005 100.654 19.2643C100.209 19.0282 99.7917 18.7375 99.4023 18.3924C99.0315 18.0291 98.7255 17.6113 98.4844 17.139H98.4288V19.6185Z" fill="black"/>
<path fill-rule="evenodd" clip-rule="evenodd" d="M90.2532 12.2729L81.8986 5.77495L82.5014 5L91.8184 12.2466L82.5142 20L81.8857 19.2458L90.2532 12.2729Z" fill="black"/>
<path fill-rule="evenodd" clip-rule="evenodd" d="M19.3679 11.7688H90.545V12.7506H19.3679V11.7688Z" fill="black"/>
</svg>
